<?xml version="1.0" encoding="UTF-8" standalone="no"?>
<!DOCTYPE svg PUBLIC "-//W3C//DTD SVG 1.1//EN"
 "http://www.w3.org/Graphics/SVG/1.1/DTD/svg11.dtd">
<!-- Generated by graphviz version 2.47.0 (20210316.0004)
 -->
<!-- Title: dbml Pages: 1 -->
<svg width="2062pt" height="2036pt"
 viewBox="0.00 0.00 2061.96 2035.77" xmlns="http://www.w3.org/2000/svg" xmlns:xlink="http://www.w3.org/1999/xlink">
<g id="graph0" class="graph" transform="scale(1 1) rotate(0) translate(4 2031.77)">
<title>dbml</title>
<!-- cart -->
<g id="cart" class="node">
<title>cart</title>
<ellipse fill="none" stroke="black" stroke-width="0" cx="905.74" cy="-1783.24" rx="190.84" ry="172.57"/>
<polygon fill="#1d71b8" stroke="transparent" points="772.74,-1843.24 772.74,-1903.24 1038.74,-1903.24 1038.74,-1843.24 772.74,-1843.24"/>
<polygon fill="none" stroke="#29235c" points="772.74,-1843.24 772.74,-1903.24 1038.74,-1903.24 1038.74,-1843.24 772.74,-1843.24"/>
<text text-anchor="start" x="816.82" y="-1864.44" font-family="Helvetica,sans-Serif" font-weight="bold" font-size="32.00" fill="#ffffff"> &#160;&#160;&#160;&#160;&#160;&#160;cart &#160;&#160;&#160;&#160;&#160;&#160;</text>
<polygon fill="#e7e2dd" stroke="transparent" points="772.74,-1783.24 772.74,-1843.24 1038.74,-1843.24 1038.74,-1783.24 772.74,-1783.24"/>
<polygon fill="none" stroke="#29235c" points="772.74,-1783.24 772.74,-1843.24 1038.74,-1843.24 1038.74,-1783.24 772.74,-1783.24"/>
<text text-anchor="start" x="783.74" y="-1804.44" font-family="Helvetica,sans-Serif" font-weight="bold" font-size="32.00" fill="#29235c">id</text>
<text text-anchor="start" x="808.63" y="-1804.44" font-family="Helvetica,sans-Serif" font-size="32.00" fill="#29235c"> &#160;&#160;&#160;</text>
<text text-anchor="start" x="928.18" y="-1804.44" font-family="Helvetica,sans-Serif" font-style="italic" font-size="32.00" fill="#29235c">uuid</text>
<text text-anchor="start" x="988.65" y="-1804.44" font-family="Helvetica,sans-Serif" font-size="32.00" fill="#29235c"> </text>
<text text-anchor="start" x="997.54" y="-1804.44" font-family="Helvetica,sans-Serif" font-weight="bold" font-size="32.00" fill="#29235c">(!)</text>
<polygon fill="#e7e2dd" stroke="transparent" points="772.74,-1723.24 772.74,-1783.24 1038.74,-1783.24 1038.74,-1723.24 772.74,-1723.24"/>
<polygon fill="none" stroke="#29235c" points="772.74,-1723.24 772.74,-1783.24 1038.74,-1783.24 1038.74,-1723.24 772.74,-1723.24"/>
<text text-anchor="start" x="783.27" y="-1743.44" font-family="Helvetica,sans-Serif" font-size="32.00" fill="#29235c">product_id &#160;&#160;&#160;</text>
<text text-anchor="start" x="967.51" y="-1744.44" font-family="Helvetica,sans-Serif" font-style="italic" font-size="32.00" fill="#29235c">uuid</text>
<polygon fill="#e7e2dd" stroke="transparent" points="772.74,-1663.24 772.74,-1723.24 1038.74,-1723.24 1038.74,-1663.24 772.74,-1663.24"/>
<polygon fill="none" stroke="#29235c" points="772.74,-1663.24 772.74,-1723.24 1038.74,-1723.24 1038.74,-1663.24 772.74,-1663.24"/>
<text text-anchor="start" x="783.74" y="-1683.44" font-family="Helvetica,sans-Serif" font-size="32.00" fill="#29235c">user_id &#160;&#160;&#160;</text>
<text text-anchor="start" x="967.27" y="-1684.44" font-family="Helvetica,sans-Serif" font-style="italic" font-size="32.00" fill="#29235c">uuid</text>
<polygon fill="none" stroke="#29235c" stroke-width="2" points="771.74,-1662.24 771.74,-1904.24 1039.74,-1904.24 1039.74,-1662.24 771.74,-1662.24"/>
</g>
<!-- products -->
<g id="products" class="node">
<title>products</title>
<ellipse fill="none" stroke="black" stroke-width="0" cx="1394.29" cy="-1450.24" rx="202.47" ry="214.92"/>
<polygon fill="#1d71b8" stroke="transparent" points="1253.29,-1540.24 1253.29,-1600.24 1535.29,-1600.24 1535.29,-1540.24 1253.29,-1540.24"/>
<polygon fill="none" stroke="#29235c" points="1253.29,-1540.24 1253.29,-1600.24 1535.29,-1600.24 1535.29,-1540.24 1253.29,-1540.24"/>
<text text-anchor="start" x="1270.69" y="-1561.44" font-family="Helvetica,sans-Serif" font-weight="bold" font-size="32.00" fill="#ffffff"> &#160;&#160;&#160;&#160;&#160;&#160;products &#160;&#160;&#160;&#160;&#160;&#160;</text>
<polygon fill="#e7e2dd" stroke="transparent" points="1253.29,-1480.24 1253.29,-1540.24 1535.29,-1540.24 1535.29,-1480.24 1253.29,-1480.24"/>
<polygon fill="none" stroke="#29235c" points="1253.29,-1480.24 1253.29,-1540.24 1535.29,-1540.24 1535.29,-1480.24 1253.29,-1480.24"/>
<text text-anchor="start" x="1264.29" y="-1501.44" font-family="Helvetica,sans-Serif" font-weight="bold" font-size="32.00" fill="#29235c">id</text>
<text text-anchor="start" x="1289.18" y="-1501.44" font-family="Helvetica,sans-Serif" font-size="32.00" fill="#29235c"> &#160;&#160;&#160;</text>
<text text-anchor="start" x="1424.73" y="-1501.44" font-family="Helvetica,sans-Serif" font-style="italic" font-size="32.00" fill="#29235c">uuid</text>
<text text-anchor="start" x="1485.2" y="-1501.44" font-family="Helvetica,sans-Serif" font-size="32.00" fill="#29235c"> </text>
<text text-anchor="start" x="1494.09" y="-1501.44" font-family="Helvetica,sans-Serif" font-weight="bold" font-size="32.00" fill="#29235c">(!)</text>
<polygon fill="#e7e2dd" stroke="transparent" points="1253.29,-1420.24 1253.29,-1480.24 1535.29,-1480.24 1535.29,-1420.24 1253.29,-1420.24"/>
<polygon fill="none" stroke="#29235c" points="1253.29,-1420.24 1253.29,-1480.24 1535.29,-1480.24 1535.29,-1420.24 1253.29,-1420.24"/>
<text text-anchor="start" x="1264.29" y="-1440.44" font-family="Helvetica,sans-Serif" font-size="32.00" fill="#29235c">name &#160;&#160;&#160;</text>
<text text-anchor="start" x="1417.62" y="-1441.44" font-family="Helvetica,sans-Serif" font-style="italic" font-size="32.00" fill="#29235c">varchar</text>
<polygon fill="#e7e2dd" stroke="transparent" points="1253.29,-1360.24 1253.29,-1420.24 1535.29,-1420.24 1535.29,-1360.24 1253.29,-1360.24"/>
<polygon fill="none" stroke="#29235c" points="1253.29,-1360.24 1253.29,-1420.24 1535.29,-1420.24 1535.29,-1360.24 1253.29,-1360.24"/>
<text text-anchor="start" x="1264.29" y="-1380.44" font-family="Helvetica,sans-Serif" font-size="32.00" fill="#29235c">image &#160;&#160;&#160;</text>
<text text-anchor="start" x="1417.62" y="-1381.44" font-family="Helvetica,sans-Serif" font-style="italic" font-size="32.00" fill="#29235c">varchar</text>
<polygon fill="#e7e2dd" stroke="transparent" points="1253.29,-1300.24 1253.29,-1360.24 1535.29,-1360.24 1535.29,-1300.24 1253.29,-1300.24"/>
<polygon fill="none" stroke="#29235c" points="1253.29,-1300.24 1253.29,-1360.24 1535.29,-1360.24 1535.29,-1300.24 1253.29,-1300.24"/>
<text text-anchor="start" x="1263.81" y="-1320.44" font-family="Helvetica,sans-Serif" font-size="32.00" fill="#29235c">category_id &#160;&#160;&#160;</text>
<text text-anchor="start" x="1464.06" y="-1321.44" font-family="Helvetica,sans-Serif" font-style="italic" font-size="32.00" fill="#29235c">uuid</text>
<polygon fill="none" stroke="#29235c" stroke-width="2" points="1252.29,-1299.24 1252.29,-1601.24 1536.29,-1601.24 1536.29,-1299.24 1252.29,-1299.24"/>
</g>
<!-- cart&#45;&gt;products -->
<!-- cart&#45;&gt;products -->
<g id="edge6" class="edge">
<title>cart:e&#45;&gt;products:w</title>
<path fill="none" stroke="#29235c" stroke-width="3" d="M1039.74,-1753.24C1179.72,-1753.24 1112.31,-1521.96 1242.16,-1510.67"/>
<polygon fill="#29235c" stroke="#29235c" stroke-width="3" points="1242.45,-1514.16 1252.29,-1510.24 1242.15,-1507.16 1242.45,-1514.16"/>
<text text-anchor="middle" x="1243.4" y="-1519.84" font-family="Helvetica,sans-Serif" font-size="32.00" fill="#29235c">1</text>
<text text-anchor="middle" x="1030.85" y="-1762.84" font-family="Helvetica,sans-Serif" font-size="32.00" fill="#29235c">1</text>
</g>
<!-- cart_options -->
<g id="cart_options" class="node">
<title>cart_options</title>
<ellipse fill="none" stroke="black" stroke-width="0" cx="309.71" cy="-1855.24" rx="229.21" ry="172.57"/>
<polygon fill="#1d71b8" stroke="transparent" points="149.71,-1915.24 149.71,-1975.24 469.71,-1975.24 469.71,-1915.24 149.71,-1915.24"/>
<polygon fill="none" stroke="#29235c" points="149.71,-1915.24 149.71,-1975.24 469.71,-1975.24 469.71,-1915.24 149.71,-1915.24"/>
<text text-anchor="start" x="160.33" y="-1936.44" font-family="Helvetica,sans-Serif" font-weight="bold" font-size="32.00" fill="#ffffff"> &#160;&#160;&#160;&#160;&#160;&#160;cart_options &#160;&#160;&#160;&#160;&#160;&#160;</text>
<polygon fill="#e7e2dd" stroke="transparent" points="149.71,-1855.24 149.71,-1915.24 469.71,-1915.24 469.71,-1855.24 149.71,-1855.24"/>
<polygon fill="none" stroke="#29235c" points="149.71,-1855.24 149.71,-1915.24 469.71,-1915.24 469.71,-1855.24 149.71,-1855.24"/>
<text text-anchor="start" x="160.71" y="-1876.44" font-family="Helvetica,sans-Serif" font-weight="bold" font-size="32.00" fill="#29235c">id</text>
<text text-anchor="start" x="185.6" y="-1876.44" font-family="Helvetica,sans-Serif" font-size="32.00" fill="#29235c"> &#160;&#160;&#160;</text>
<text text-anchor="start" x="359.15" y="-1876.44" font-family="Helvetica,sans-Serif" font-style="italic" font-size="32.00" fill="#29235c">uuid</text>
<text text-anchor="start" x="419.62" y="-1876.44" font-family="Helvetica,sans-Serif" font-size="32.00" fill="#29235c"> </text>
<text text-anchor="start" x="428.51" y="-1876.44" font-family="Helvetica,sans-Serif" font-weight="bold" font-size="32.00" fill="#29235c">(!)</text>
<polygon fill="#e7e2dd" stroke="transparent" points="149.71,-1795.24 149.71,-1855.24 469.71,-1855.24 469.71,-1795.24 149.71,-1795.24"/>
<polygon fill="none" stroke="#29235c" points="149.71,-1795.24 149.71,-1855.24 469.71,-1855.24 469.71,-1795.24 149.71,-1795.24"/>
<text text-anchor="start" x="160.71" y="-1815.44" font-family="Helvetica,sans-Serif" font-size="32.00" fill="#29235c">cart_id &#160;&#160;&#160;</text>
<text text-anchor="start" x="359.15" y="-1816.44" font-family="Helvetica,sans-Serif" font-style="italic" font-size="32.00" fill="#29235c">uuid</text>
<text text-anchor="start" x="419.62" y="-1816.44" font-family="Helvetica,sans-Serif" font-size="32.00" fill="#29235c"> </text>
<text text-anchor="start" x="428.51" y="-1816.44" font-family="Helvetica,sans-Serif" font-weight="bold" font-size="32.00" fill="#29235c">(!)</text>
<polygon fill="#e7e2dd" stroke="transparent" points="149.71,-1735.24 149.71,-1795.24 469.71,-1795.24 469.71,-1735.24 149.71,-1735.24"/>
<polygon fill="none" stroke="#29235c" points="149.71,-1735.24 149.71,-1795.24 469.71,-1795.24 469.71,-1735.24 149.71,-1735.24"/>
<text text-anchor="start" x="160.71" y="-1755.44" font-family="Helvetica,sans-Serif" font-size="32.00" fill="#29235c">option_id &#160;&#160;&#160;</text>
<text text-anchor="start" x="359.15" y="-1756.44" font-family="Helvetica,sans-Serif" font-style="italic" font-size="32.00" fill="#29235c">uuid</text>
<text text-anchor="start" x="419.62" y="-1756.44" font-family="Helvetica,sans-Serif" font-size="32.00" fill="#29235c"> </text>
<text text-anchor="start" x="428.51" y="-1756.44" font-family="Helvetica,sans-Serif" font-weight="bold" font-size="32.00" fill="#29235c">(!)</text>
<polygon fill="none" stroke="#29235c" stroke-width="2" points="148.71,-1734.24 148.71,-1976.24 470.71,-1976.24 470.71,-1734.24 148.71,-1734.24"/>
</g>
<!-- cart_options&#45;&gt;cart -->
<!-- cart_options&#45;&gt;cart -->
<g id="edge2" class="edge">
<title>cart_options:e&#45;&gt;cart:w</title>
<path fill="none" stroke="#29235c" stroke-width="3" d="M470.71,-1825.24C601.21,-1825.24 636.09,-1813.84 761.73,-1813.26"/>
<polygon fill="#29235c" stroke="#29235c" stroke-width="3" points="761.75,-1816.76 771.74,-1813.24 761.73,-1809.76 761.75,-1816.76"/>
<text text-anchor="middle" x="762.85" y="-1822.84" font-family="Helvetica,sans-Serif" font-size="32.00" fill="#29235c">1</text>
<text text-anchor="middle" x="461.82" y="-1834.84" font-family="Helvetica,sans-Serif" font-size="32.00" fill="#29235c">1</text>
</g>
<!-- part_options -->
<g id="part_options" class="node">
<title>part_options</title>
<ellipse fill="none" stroke="black" stroke-width="0" cx="905.74" cy="-960.24" rx="250.13" ry="257.27"/>
<polygon fill="#1d71b8" stroke="transparent" points="730.74,-1080.24 730.74,-1140.24 1080.74,-1140.24 1080.74,-1080.24 730.74,-1080.24"/>
<polygon fill="none" stroke="#29235c" points="730.74,-1080.24 730.74,-1140.24 1080.74,-1140.24 1080.74,-1080.24 730.74,-1080.24"/>
<text text-anchor="start" x="755.46" y="-1101.44" font-family="Helvetica,sans-Serif" font-weight="bold" font-size="32.00" fill="#ffffff"> &#160;&#160;&#160;&#160;&#160;&#160;part_options &#160;&#160;&#160;&#160;&#160;&#160;</text>
<polygon fill="#e7e2dd" stroke="transparent" points="730.74,-1020.24 730.74,-1080.24 1080.74,-1080.24 1080.74,-1020.24 730.74,-1020.24"/>
<polygon fill="none" stroke="#29235c" points="730.74,-1020.24 730.74,-1080.24 1080.74,-1080.24 1080.74,-1020.24 730.74,-1020.24"/>
<text text-anchor="start" x="741.74" y="-1041.44" font-family="Helvetica,sans-Serif" font-weight="bold" font-size="32.00" fill="#29235c">id</text>
<text text-anchor="start" x="766.63" y="-1041.44" font-family="Helvetica,sans-Serif" font-size="32.00" fill="#29235c"> &#160;&#160;&#160;</text>
<text text-anchor="start" x="970.18" y="-1041.44" font-family="Helvetica,sans-Serif" font-style="italic" font-size="32.00" fill="#29235c">uuid</text>
<text text-anchor="start" x="1030.65" y="-1041.44" font-family="Helvetica,sans-Serif" font-size="32.00" fill="#29235c"> </text>
<text text-anchor="start" x="1039.54" y="-1041.44" font-family="Helvetica,sans-Serif" font-weight="bold" font-size="32.00" fill="#29235c">(!)</text>
<polygon fill="#e7e2dd" stroke="transparent" points="730.74,-960.24 730.74,-1020.24 1080.74,-1020.24 1080.74,-960.24 730.74,-960.24"/>
<polygon fill="none" stroke="#29235c" points="730.74,-960.24 730.74,-1020.24 1080.74,-1020.24 1080.74,-960.24 730.74,-960.24"/>
<text text-anchor="start" x="741.74" y="-980.44" font-family="Helvetica,sans-Serif" font-size="32.00" fill="#29235c">part_id &#160;&#160;&#160;</text>
<text text-anchor="start" x="1009.27" y="-981.44" font-family="Helvetica,sans-Serif" font-style="italic" font-size="32.00" fill="#29235c">uuid</text>
<polygon fill="#e7e2dd" stroke="transparent" points="730.74,-900.24 730.74,-960.24 1080.74,-960.24 1080.74,-900.24 730.74,-900.24"/>
<polygon fill="none" stroke="#29235c" points="730.74,-900.24 730.74,-960.24 1080.74,-960.24 1080.74,-900.24 730.74,-900.24"/>
<text text-anchor="start" x="741.74" y="-920.44" font-family="Helvetica,sans-Serif" font-size="32.00" fill="#29235c">name &#160;&#160;&#160;</text>
<text text-anchor="start" x="963.07" y="-921.44" font-family="Helvetica,sans-Serif" font-style="italic" font-size="32.00" fill="#29235c">varchar</text>
<polygon fill="#e7e2dd" stroke="transparent" points="730.74,-840.24 730.74,-900.24 1080.74,-900.24 1080.74,-840.24 730.74,-840.24"/>
<polygon fill="none" stroke="#29235c" points="730.74,-840.24 730.74,-900.24 1080.74,-900.24 1080.74,-840.24 730.74,-840.24"/>
<text text-anchor="start" x="741.74" y="-860.44" font-family="Helvetica,sans-Serif" font-size="32.00" fill="#29235c">availability &#160;&#160;&#160;</text>
<text text-anchor="start" x="955.91" y="-861.44" font-family="Helvetica,sans-Serif" font-style="italic" font-size="32.00" fill="#29235c">boolean</text>
<polygon fill="#e7e2dd" stroke="transparent" points="730.74,-780.24 730.74,-840.24 1080.74,-840.24 1080.74,-780.24 730.74,-780.24"/>
<polygon fill="none" stroke="#29235c" points="730.74,-780.24 730.74,-840.24 1080.74,-840.24 1080.74,-780.24 730.74,-780.24"/>
<text text-anchor="start" x="741.71" y="-800.44" font-family="Helvetica,sans-Serif" font-size="32.00" fill="#29235c">base_price &#160;&#160;&#160;</text>
<text text-anchor="start" x="933.29" y="-801.44" font-family="Helvetica,sans-Serif" font-style="italic" font-size="32.00" fill="#29235c">integer</text>
<text text-anchor="start" x="1031.1" y="-801.44" font-family="Helvetica,sans-Serif" font-size="32.00" fill="#29235c"> </text>
<text text-anchor="start" x="1039.99" y="-801.44" font-family="Helvetica,sans-Serif" font-weight="bold" font-size="32.00" fill="#29235c">(!)</text>
<polygon fill="none" stroke="#29235c" stroke-width="2" points="729.74,-779.24 729.74,-1141.24 1081.74,-1141.24 1081.74,-779.24 729.74,-779.24"/>
</g>
<!-- cart_options&#45;&gt;part_options -->
<!-- cart_options&#45;&gt;part_options -->
<g id="edge4" class="edge">
<title>cart_options:e&#45;&gt;part_options:w</title>
<path fill="none" stroke="#29235c" stroke-width="3" d="M470.71,-1765.24C548.2,-1765.24 575.78,-1738.27 619.43,-1674.24 696.73,-1560.84 594.38,-1075.77 719.49,-1051.21"/>
<polygon fill="#29235c" stroke="#29235c" stroke-width="3" points="720.11,-1054.66 729.74,-1050.24 719.46,-1047.69 720.11,-1054.66"/>
<text text-anchor="middle" x="720.85" y="-1059.84" font-family="Helvetica,sans-Serif" font-size="32.00" fill="#29235c">1</text>
<text text-anchor="middle" x="461.82" y="-1774.84" font-family="Helvetica,sans-Serif" font-size="32.00" fill="#29235c">1</text>
</g>
<!-- categories -->
<g id="categories" class="node">
<title>categories</title>
<ellipse fill="none" stroke="black" stroke-width="0" cx="1843.24" cy="-1202.24" rx="210.94" ry="130.22"/>
<polygon fill="#1d71b8" stroke="transparent" points="1696.24,-1232.24 1696.24,-1292.24 1990.24,-1292.24 1990.24,-1232.24 1696.24,-1232.24"/>
<polygon fill="none" stroke="#29235c" points="1696.24,-1232.24 1696.24,-1292.24 1990.24,-1292.24 1990.24,-1232.24 1696.24,-1232.24"/>
<text text-anchor="start" x="1707.2" y="-1253.44" font-family="Helvetica,sans-Serif" font-weight="bold" font-size="32.00" fill="#ffffff"> &#160;&#160;&#160;&#160;&#160;&#160;categories &#160;&#160;&#160;&#160;&#160;&#160;</text>
<polygon fill="#e7e2dd" stroke="transparent" points="1696.24,-1172.24 1696.24,-1232.24 1990.24,-1232.24 1990.24,-1172.24 1696.24,-1172.24"/>
<polygon fill="none" stroke="#29235c" points="1696.24,-1172.24 1696.24,-1232.24 1990.24,-1232.24 1990.24,-1172.24 1696.24,-1172.24"/>
<text text-anchor="start" x="1707.24" y="-1193.44" font-family="Helvetica,sans-Serif" font-weight="bold" font-size="32.00" fill="#29235c">id</text>
<text text-anchor="start" x="1732.13" y="-1193.44" font-family="Helvetica,sans-Serif" font-size="32.00" fill="#29235c"> &#160;&#160;&#160;</text>
<text text-anchor="start" x="1879.68" y="-1193.44" font-family="Helvetica,sans-Serif" font-style="italic" font-size="32.00" fill="#29235c">uuid</text>
<text text-anchor="start" x="1940.15" y="-1193.44" font-family="Helvetica,sans-Serif" font-size="32.00" fill="#29235c"> </text>
<text text-anchor="start" x="1949.04" y="-1193.44" font-family="Helvetica,sans-Serif" font-weight="bold" font-size="32.00" fill="#29235c">(!)</text>
<polygon fill="#e7e2dd" stroke="transparent" points="1696.24,-1112.24 1696.24,-1172.24 1990.24,-1172.24 1990.24,-1112.24 1696.24,-1112.24"/>
<polygon fill="none" stroke="#29235c" points="1696.24,-1112.24 1696.24,-1172.24 1990.24,-1172.24 1990.24,-1112.24 1696.24,-1112.24"/>
<text text-anchor="start" x="1707.24" y="-1132.44" font-family="Helvetica,sans-Serif" font-size="32.00" fill="#29235c">name &#160;&#160;&#160;</text>
<text text-anchor="start" x="1872.57" y="-1133.44" font-family="Helvetica,sans-Serif" font-style="italic" font-size="32.00" fill="#29235c">varchar</text>
<polygon fill="none" stroke="#29235c" stroke-width="2" points="1695.24,-1111.24 1695.24,-1293.24 1991.24,-1293.24 1991.24,-1111.24 1695.24,-1111.24"/>
</g>
<!-- parts -->
<g id="parts" class="node">
<title>parts</title>
<ellipse fill="none" stroke="black" stroke-width="0" cx="1394.29" cy="-1032.24" rx="202.47" ry="172.57"/>
<polygon fill="#1d71b8" stroke="transparent" points="1253.29,-1092.24 1253.29,-1152.24 1535.29,-1152.24 1535.29,-1092.24 1253.29,-1092.24"/>
<polygon fill="none" stroke="#29235c" points="1253.29,-1092.24 1253.29,-1152.24 1535.29,-1152.24 1535.29,-1092.24 1253.29,-1092.24"/>
<text text-anchor="start" x="1296.48" y="-1113.44" font-family="Helvetica,sans-Serif" font-weight="bold" font-size="32.00" fill="#ffffff"> &#160;&#160;&#160;&#160;&#160;&#160;parts &#160;&#160;&#160;&#160;&#160;&#160;</text>
<polygon fill="#e7e2dd" stroke="transparent" points="1253.29,-1032.24 1253.29,-1092.24 1535.29,-1092.24 1535.29,-1032.24 1253.29,-1032.24"/>
<polygon fill="none" stroke="#29235c" points="1253.29,-1032.24 1253.29,-1092.24 1535.29,-1092.24 1535.29,-1032.24 1253.29,-1032.24"/>
<text text-anchor="start" x="1264.29" y="-1053.44" font-family="Helvetica,sans-Serif" font-weight="bold" font-size="32.00" fill="#29235c">id</text>
<text text-anchor="start" x="1289.18" y="-1053.44" font-family="Helvetica,sans-Serif" font-size="32.00" fill="#29235c"> &#160;&#160;&#160;</text>
<text text-anchor="start" x="1424.73" y="-1053.44" font-family="Helvetica,sans-Serif" font-style="italic" font-size="32.00" fill="#29235c">uuid</text>
<text text-anchor="start" x="1485.2" y="-1053.44" font-family="Helvetica,sans-Serif" font-size="32.00" fill="#29235c"> </text>
<text text-anchor="start" x="1494.09" y="-1053.44" font-family="Helvetica,sans-Serif" font-weight="bold" font-size="32.00" fill="#29235c">(!)</text>
<polygon fill="#e7e2dd" stroke="transparent" points="1253.29,-972.24 1253.29,-1032.24 1535.29,-1032.24 1535.29,-972.24 1253.29,-972.24"/>
<polygon fill="none" stroke="#29235c" points="1253.29,-972.24 1253.29,-1032.24 1535.29,-1032.24 1535.29,-972.24 1253.29,-972.24"/>
<text text-anchor="start" x="1264.29" y="-992.44" font-family="Helvetica,sans-Serif" font-size="32.00" fill="#29235c">name &#160;&#160;&#160;</text>
<text text-anchor="start" x="1417.62" y="-993.44" font-family="Helvetica,sans-Serif" font-style="italic" font-size="32.00" fill="#29235c">varchar</text>
<polygon fill="#e7e2dd" stroke="transparent" points="1253.29,-912.24 1253.29,-972.24 1535.29,-972.24 1535.29,-912.24 1253.29,-912.24"/>
<polygon fill="none" stroke="#29235c" points="1253.29,-912.24 1253.29,-972.24 1535.29,-972.24 1535.29,-912.24 1253.29,-912.24"/>
<text text-anchor="start" x="1263.81" y="-932.44" font-family="Helvetica,sans-Serif" font-size="32.00" fill="#29235c">category_id &#160;&#160;&#160;</text>
<text text-anchor="start" x="1464.06" y="-933.44" font-family="Helvetica,sans-Serif" font-style="italic" font-size="32.00" fill="#29235c">uuid</text>
<polygon fill="none" stroke="#29235c" stroke-width="2" points="1252.29,-911.24 1252.29,-1153.24 1536.29,-1153.24 1536.29,-911.24 1252.29,-911.24"/>
</g>
<!-- part_options&#45;&gt;parts -->
<!-- part_options&#45;&gt;parts -->
<g id="edge8" class="edge">
<title>part_options:e&#45;&gt;parts:w</title>
<path fill="none" stroke="#29235c" stroke-width="3" d="M1081.74,-990.24C1160.48,-990.24 1169.36,-1056.19 1242.09,-1061.85"/>
<polygon fill="#29235c" stroke="#29235c" stroke-width="3" points="1242.16,-1065.36 1252.29,-1062.24 1242.43,-1058.36 1242.16,-1065.36"/>
<text text-anchor="middle" x="1243.4" y="-1071.84" font-family="Helvetica,sans-Serif" font-size="32.00" fill="#29235c">1</text>
<text text-anchor="middle" x="1072.85" y="-999.84" font-family="Helvetica,sans-Serif" font-size="32.00" fill="#29235c">1</text>
</g>
<!-- parts&#45;&gt;categories -->
<!-- parts&#45;&gt;categories -->
<g id="edge10" class="edge">
<title>parts:e&#45;&gt;categories:w</title>
<path fill="none" stroke="#29235c" stroke-width="3" d="M1536.29,-942.24C1668.16,-942.24 1565.53,-1188.71 1685.03,-1201.71"/>
<polygon fill="#29235c" stroke="#29235c" stroke-width="3" points="1685.07,-1205.21 1695.24,-1202.24 1685.44,-1198.22 1685.07,-1205.21"/>
<text text-anchor="middle" x="1686.35" y="-1211.84" font-family="Helvetica,sans-Serif" font-size="32.00" fill="#29235c">1</text>
<text text-anchor="middle" x="1527.4" y="-951.84" font-family="Helvetica,sans-Serif" font-size="32.00" fill="#29235c">1</text>
</g>
<!-- price_combination -->
<g id="price_combination" class="node">
<title>price_combination</title>
<ellipse fill="none" stroke="black" stroke-width="0" cx="309.71" cy="-960.24" rx="309.93" ry="257.27"/>
<polygon fill="#1d71b8" stroke="transparent" points="92.71,-1080.24 92.71,-1140.24 526.71,-1140.24 526.71,-1080.24 92.71,-1080.24"/>
<polygon fill="none" stroke="#29235c" points="92.71,-1080.24 92.71,-1140.24 526.71,-1140.24 526.71,-1080.24 92.71,-1080.24"/>
<text text-anchor="start" x="117.66" y="-1101.44" font-family="Helvetica,sans-Serif" font-weight="bold" font-size="32.00" fill="#ffffff"> &#160;&#160;&#160;&#160;&#160;&#160;price_combination &#160;&#160;&#160;&#160;&#160;&#160;</text>
<polygon fill="#e7e2dd" stroke="transparent" points="92.71,-1020.24 92.71,-1080.24 526.71,-1080.24 526.71,-1020.24 92.71,-1020.24"/>
<polygon fill="none" stroke="#29235c" points="92.71,-1020.24 92.71,-1080.24 526.71,-1080.24 526.71,-1020.24 92.71,-1020.24"/>
<text text-anchor="start" x="103.71" y="-1041.44" font-family="Helvetica,sans-Serif" font-weight="bold" font-size="32.00" fill="#29235c">id</text>
<text text-anchor="start" x="128.6" y="-1041.44" font-family="Helvetica,sans-Serif" font-size="32.00" fill="#29235c"> &#160;&#160;&#160;</text>
<text text-anchor="start" x="416.15" y="-1041.44" font-family="Helvetica,sans-Serif" font-style="italic" font-size="32.00" fill="#29235c">uuid</text>
<text text-anchor="start" x="476.62" y="-1041.44" font-family="Helvetica,sans-Serif" font-size="32.00" fill="#29235c"> </text>
<text text-anchor="start" x="485.51" y="-1041.44" font-family="Helvetica,sans-Serif" font-weight="bold" font-size="32.00" fill="#29235c">(!)</text>
<polygon fill="#e7e2dd" stroke="transparent" points="92.71,-960.24 92.71,-1020.24 526.71,-1020.24 526.71,-960.24 92.71,-960.24"/>
<polygon fill="none" stroke="#29235c" points="92.71,-960.24 92.71,-1020.24 526.71,-1020.24 526.71,-960.24 92.71,-960.24"/>
<text text-anchor="start" x="103.7" y="-980.44" font-family="Helvetica,sans-Serif" font-size="32.00" fill="#29235c">option_to_adjust_id &#160;&#160;&#160;</text>
<text text-anchor="start" x="416.43" y="-981.44" font-family="Helvetica,sans-Serif" font-style="italic" font-size="32.00" fill="#29235c">uuid</text>
<text text-anchor="start" x="476.9" y="-981.44" font-family="Helvetica,sans-Serif" font-size="32.00" fill="#29235c"> </text>
<text text-anchor="start" x="485.79" y="-981.44" font-family="Helvetica,sans-Serif" font-weight="bold" font-size="32.00" fill="#29235c">(!)</text>
<polygon fill="#e7e2dd" stroke="transparent" points="92.71,-900.24 92.71,-960.24 526.71,-960.24 526.71,-900.24 92.71,-900.24"/>
<polygon fill="none" stroke="#29235c" points="92.71,-900.24 92.71,-960.24 526.71,-960.24 526.71,-900.24 92.71,-900.24"/>
<text text-anchor="start" x="103.71" y="-920.44" font-family="Helvetica,sans-Serif" font-size="32.00" fill="#29235c">trigger_option_id &#160;&#160;&#160;</text>
<text text-anchor="start" x="416.15" y="-921.44" font-family="Helvetica,sans-Serif" font-style="italic" font-size="32.00" fill="#29235c">uuid</text>
<text text-anchor="start" x="476.62" y="-921.44" font-family="Helvetica,sans-Serif" font-size="32.00" fill="#29235c"> </text>
<text text-anchor="start" x="485.51" y="-921.44" font-family="Helvetica,sans-Serif" font-weight="bold" font-size="32.00" fill="#29235c">(!)</text>
<polygon fill="#e7e2dd" stroke="transparent" points="92.71,-840.24 92.71,-900.24 526.71,-900.24 526.71,-840.24 92.71,-840.24"/>
<polygon fill="none" stroke="#29235c" points="92.71,-840.24 92.71,-900.24 526.71,-900.24 526.71,-840.24 92.71,-840.24"/>
<text text-anchor="start" x="103.71" y="-860.44" font-family="Helvetica,sans-Serif" font-size="32.00" fill="#29235c">reason &#160;&#160;&#160;</text>
<text text-anchor="start" x="409.04" y="-861.44" font-family="Helvetica,sans-Serif" font-style="italic" font-size="32.00" fill="#29235c">varchar</text>
<polygon fill="#e7e2dd" stroke="transparent" points="92.71,-780.24 92.71,-840.24 526.71,-840.24 526.71,-780.24 92.71,-780.24"/>
<polygon fill="none" stroke="#29235c" points="92.71,-780.24 92.71,-840.24 526.71,-840.24 526.71,-780.24 92.71,-780.24"/>
<text text-anchor="start" x="103.71" y="-800.44" font-family="Helvetica,sans-Serif" font-size="32.00" fill="#29235c">priceDiff &#160;&#160;&#160;</text>
<text text-anchor="start" x="378.82" y="-801.44" font-family="Helvetica,sans-Serif" font-style="italic" font-size="32.00" fill="#29235c">integer</text>
<text text-anchor="start" x="476.62" y="-801.44" font-family="Helvetica,sans-Serif" font-size="32.00" fill="#29235c"> </text>
<text text-anchor="start" x="485.51" y="-801.44" font-family="Helvetica,sans-Serif" font-weight="bold" font-size="32.00" fill="#29235c">(!)</text>
<polygon fill="none" stroke="#29235c" stroke-width="2" points="91.71,-779.24 91.71,-1141.24 527.71,-1141.24 527.71,-779.24 91.71,-779.24"/>
</g>
<!-- price_combination&#45;&gt;part_options -->
<!-- price_combination&#45;&gt;part_options -->
<g id="edge12" class="edge">
<title>price_combination:e&#45;&gt;part_options:w</title>
<path fill="none" stroke="#29235c" stroke-width="3" d="M527.71,-990.24C617.9,-990.24 634.88,-1045.87 719.63,-1050"/>
<polygon fill="#29235c" stroke="#29235c" stroke-width="3" points="719.66,-1053.5 729.74,-1050.24 719.83,-1046.5 719.66,-1053.5"/>
<text text-anchor="middle" x="738.64" y="-1059.84" font-family="Helvetica,sans-Serif" font-size="32.00" fill="#29235c">1</text>
<text text-anchor="middle" x="518.82" y="-999.84" font-family="Helvetica,sans-Serif" font-size="32.00" fill="#29235c">1</text>
</g>
<!-- price_combination&#45;&gt;part_options -->
<!-- price_combination&#45;&gt;part_options -->
<g id="edge14" class="edge">
<title>price_combination:e&#45;&gt;part_options:w</title>
<path fill="none" stroke="#29235c" stroke-width="3" d="M527.71,-930.24C628.68,-930.24 625.64,-1042.4 719.7,-1049.85"/>
<polygon fill="#29235c" stroke="#29235c" stroke-width="3" points="719.61,-1053.35 729.74,-1050.24 719.88,-1046.36 719.61,-1053.35"/>
<text text-anchor="middle" x="720.85" y="-1021.44" font-family="Helvetica,sans-Serif" font-size="32.00" fill="#29235c">1</text>
<text text-anchor="middle" x="518.82" y="-939.84" font-family="Helvetica,sans-Serif" font-size="32.00" fill="#29235c">1</text>
</g>
<!-- presets -->
<g id="presets" class="node">
<title>presets</title>
<ellipse fill="none" stroke="black" stroke-width="0" cx="309.71" cy="-1450.24" rx="229.21" ry="214.92"/>
<polygon fill="#1d71b8" stroke="transparent" points="149.71,-1540.24 149.71,-1600.24 469.71,-1600.24 469.71,-1540.24 149.71,-1540.24"/>
<polygon fill="none" stroke="#29235c" points="149.71,-1540.24 149.71,-1600.24 469.71,-1600.24 469.71,-1540.24 149.71,-1540.24"/>
<text text-anchor="start" x="195.01" y="-1561.44" font-family="Helvetica,sans-Serif" font-weight="bold" font-size="32.00" fill="#ffffff"> &#160;&#160;&#160;&#160;&#160;&#160;presets &#160;&#160;&#160;&#160;&#160;&#160;</text>
<polygon fill="#e7e2dd" stroke="transparent" points="149.71,-1480.24 149.71,-1540.24 469.71,-1540.24 469.71,-1480.24 149.71,-1480.24"/>
<polygon fill="none" stroke="#29235c" points="149.71,-1480.24 149.71,-1540.24 469.71,-1540.24 469.71,-1480.24 149.71,-1480.24"/>
<text text-anchor="start" x="160.71" y="-1501.44" font-family="Helvetica,sans-Serif" font-weight="bold" font-size="32.00" fill="#29235c">id</text>
<text text-anchor="start" x="185.6" y="-1501.44" font-family="Helvetica,sans-Serif" font-size="32.00" fill="#29235c"> &#160;&#160;&#160;</text>
<text text-anchor="start" x="359.15" y="-1501.44" font-family="Helvetica,sans-Serif" font-style="italic" font-size="32.00" fill="#29235c">uuid</text>
<text text-anchor="start" x="419.62" y="-1501.44" font-family="Helvetica,sans-Serif" font-size="32.00" fill="#29235c"> </text>
<text text-anchor="start" x="428.51" y="-1501.44" font-family="Helvetica,sans-Serif" font-weight="bold" font-size="32.00" fill="#29235c">(!)</text>
<polygon fill="#e7e2dd" stroke="transparent" points="149.71,-1420.24 149.71,-1480.24 469.71,-1480.24 469.71,-1420.24 149.71,-1420.24"/>
<polygon fill="none" stroke="#29235c" points="149.71,-1420.24 149.71,-1480.24 469.71,-1480.24 469.71,-1420.24 149.71,-1420.24"/>
<text text-anchor="start" x="160.71" y="-1440.44" font-family="Helvetica,sans-Serif" font-size="32.00" fill="#29235c">product_id &#160;&#160;&#160;</text>
<text text-anchor="start" x="398.25" y="-1441.44" font-family="Helvetica,sans-Serif" font-style="italic" font-size="32.00" fill="#29235c">uuid</text>
<polygon fill="#e7e2dd" stroke="transparent" points="149.71,-1360.24 149.71,-1420.24 469.71,-1420.24 469.71,-1360.24 149.71,-1360.24"/>
<polygon fill="none" stroke="#29235c" points="149.71,-1360.24 149.71,-1420.24 469.71,-1420.24 469.71,-1360.24 149.71,-1360.24"/>
<text text-anchor="start" x="160.71" y="-1380.44" font-family="Helvetica,sans-Serif" font-size="32.00" fill="#29235c">part_id &#160;&#160;&#160;</text>
<text text-anchor="start" x="398.25" y="-1381.44" font-family="Helvetica,sans-Serif" font-style="italic" font-size="32.00" fill="#29235c">uuid</text>
<polygon fill="#e7e2dd" stroke="transparent" points="149.71,-1300.24 149.71,-1360.24 469.71,-1360.24 469.71,-1300.24 149.71,-1300.24"/>
<polygon fill="none" stroke="#29235c" points="149.71,-1300.24 149.71,-1360.24 469.71,-1360.24 469.71,-1300.24 149.71,-1300.24"/>
<text text-anchor="start" x="160.56" y="-1320.44" font-family="Helvetica,sans-Serif" font-size="32.00" fill="#29235c">part_option_id &#160;&#160;&#160;</text>
<text text-anchor="start" x="398.48" y="-1321.44" font-family="Helvetica,sans-Serif" font-style="italic" font-size="32.00" fill="#29235c">uuid</text>
<polygon fill="none" stroke="#29235c" stroke-width="2" points="148.71,-1299.24 148.71,-1601.24 470.71,-1601.24 470.71,-1299.24 148.71,-1299.24"/>
</g>
<!-- presets&#45;&gt;part_options -->
<!-- presets&#45;&gt;part_options -->
<g id="edge20" class="edge">
<title>presets:e&#45;&gt;part_options:w</title>
<path fill="none" stroke="#29235c" stroke-width="3" d="M470.71,-1330.24C551.37,-1330.24 563.85,-1284.69 619.43,-1226.24 680.55,-1161.95 640.82,-1058.7 719.54,-1050.73"/>
<polygon fill="#29235c" stroke="#29235c" stroke-width="3" points="719.92,-1054.22 729.74,-1050.24 719.58,-1047.22 719.92,-1054.22"/>
<text text-anchor="middle" x="738.64" y="-1021.44" font-family="Helvetica,sans-Serif" font-size="32.00" fill="#29235c">1</text>
<text text-anchor="middle" x="461.82" y="-1339.84" font-family="Helvetica,sans-Serif" font-size="32.00" fill="#29235c">1</text>
</g>
<!-- presets&#45;&gt;parts -->
<!-- presets&#45;&gt;parts -->
<g id="edge18" class="edge">
<title>presets:e&#45;&gt;parts:w</title>
<path fill="none" stroke="#29235c" stroke-width="3" d="M470.71,-1390.24C783.91,-1390.24 904.38,-1412.65 1156.06,-1226.24 1221.05,-1178.1 1172.38,-1071.89 1242.15,-1062.86"/>
<polygon fill="#29235c" stroke="#29235c" stroke-width="3" points="1242.52,-1066.34 1252.29,-1062.24 1242.1,-1059.35 1242.52,-1066.34"/>
<text text-anchor="middle" x="1261.18" y="-1071.84" font-family="Helvetica,sans-Serif" font-size="32.00" fill="#29235c">1</text>
<text text-anchor="middle" x="461.82" y="-1399.84" font-family="Helvetica,sans-Serif" font-size="32.00" fill="#29235c">1</text>
</g>
<!-- presets&#45;&gt;products -->
<!-- presets&#45;&gt;products -->
<g id="edge16" class="edge">
<title>presets:e&#45;&gt;products:w</title>
<path fill="none" stroke="#29235c" stroke-width="3" d="M470.71,-1450.24C815.7,-1450.24 902.22,-1509.07 1242.16,-1510.22"/>
<polygon fill="#29235c" stroke="#29235c" stroke-width="3" points="1242.28,-1513.72 1252.29,-1510.24 1242.3,-1506.72 1242.28,-1513.72"/>
<text text-anchor="middle" x="1261.18" y="-1519.84" font-family="Helvetica,sans-Serif" font-size="32.00" fill="#29235c">1</text>
<text text-anchor="middle" x="461.82" y="-1459.84" font-family="Helvetica,sans-Serif" font-size="32.00" fill="#29235c">1</text>
</g>
<!-- products&#45;&gt;categories -->
<!-- products&#45;&gt;categories -->
<g id="edge22" class="edge">
<title>products:e&#45;&gt;categories:w</title>
<path fill="none" stroke="#29235c" stroke-width="3" d="M1536.29,-1330.24C1623.45,-1330.24 1606.12,-1212.04 1685.12,-1202.81"/>
<polygon fill="#29235c" stroke="#29235c" stroke-width="3" points="1685.45,-1206.3 1695.24,-1202.24 1685.06,-1199.31 1685.45,-1206.3"/>
<text text-anchor="middle" x="1704.13" y="-1211.84" font-family="Helvetica,sans-Serif" font-size="32.00" fill="#29235c">1</text>
<text text-anchor="middle" x="1527.4" y="-1339.84" font-family="Helvetica,sans-Serif" font-size="32.00" fill="#29235c">1</text>
</g>
<!-- rules -->
<g id="rules" class="node">
<title>rules</title>
<ellipse fill="none" stroke="black" stroke-width="0" cx="309.71" cy="-342.24" rx="308.1" ry="342.48"/>
<polygon fill="#1d71b8" stroke="transparent" points="93.71,-522.24 93.71,-582.24 525.71,-582.24 525.71,-522.24 93.71,-522.24"/>
<polygon fill="none" stroke="#29235c" points="93.71,-522.24 93.71,-582.24 525.71,-582.24 525.71,-522.24 93.71,-522.24"/>
<text text-anchor="start" x="212.8" y="-543.44" font-family="Helvetica,sans-Serif" font-weight="bold" font-size="32.00" fill="#ffffff"> &#160;&#160;&#160;&#160;&#160;&#160;rules &#160;&#160;&#160;&#160;&#160;&#160;</text>
<polygon fill="#e7e2dd" stroke="transparent" points="93.71,-462.24 93.71,-522.24 525.71,-522.24 525.71,-462.24 93.71,-462.24"/>
<polygon fill="none" stroke="#29235c" points="93.71,-462.24 93.71,-522.24 525.71,-522.24 525.71,-462.24 93.71,-462.24"/>
<text text-anchor="start" x="104.71" y="-483.44" font-family="Helvetica,sans-Serif" font-weight="bold" font-size="32.00" fill="#29235c">id</text>
<text text-anchor="start" x="129.6" y="-483.44" font-family="Helvetica,sans-Serif" font-size="32.00" fill="#29235c"> &#160;&#160;&#160;</text>
<text text-anchor="start" x="415.15" y="-483.44" font-family="Helvetica,sans-Serif" font-style="italic" font-size="32.00" fill="#29235c">uuid</text>
<text text-anchor="start" x="475.62" y="-483.44" font-family="Helvetica,sans-Serif" font-size="32.00" fill="#29235c"> </text>
<text text-anchor="start" x="484.51" y="-483.44" font-family="Helvetica,sans-Serif" font-weight="bold" font-size="32.00" fill="#29235c">(!)</text>
<polygon fill="#e7e2dd" stroke="transparent" points="93.71,-402.24 93.71,-462.24 525.71,-462.24 525.71,-402.24 93.71,-402.24"/>
<polygon fill="none" stroke="#29235c" points="93.71,-402.24 93.71,-462.24 525.71,-462.24 525.71,-402.24 93.71,-402.24"/>
<text text-anchor="start" x="104.6" y="-422.44" font-family="Helvetica,sans-Serif" font-size="32.00" fill="#29235c">condition_option_id &#160;&#160;&#160;</text>
<text text-anchor="start" x="415.43" y="-423.44" font-family="Helvetica,sans-Serif" font-style="italic" font-size="32.00" fill="#29235c">uuid</text>
<text text-anchor="start" x="475.9" y="-423.44" font-family="Helvetica,sans-Serif" font-size="32.00" fill="#29235c"> </text>
<text text-anchor="start" x="484.79" y="-423.44" font-family="Helvetica,sans-Serif" font-weight="bold" font-size="32.00" fill="#29235c">(!)</text>
<polygon fill="#e7e2dd" stroke="transparent" points="93.71,-342.24 93.71,-402.24 525.71,-402.24 525.71,-342.24 93.71,-342.24"/>
<polygon fill="none" stroke="#29235c" points="93.71,-342.24 93.71,-402.24 525.71,-402.24 525.71,-342.24 93.71,-342.24"/>
<text text-anchor="start" x="104.71" y="-362.44" font-family="Helvetica,sans-Serif" font-size="32.00" fill="#29235c">action_type &#160;&#160;&#160;</text>
<text text-anchor="start" x="368.95" y="-363.44" font-family="Helvetica,sans-Serif" font-style="italic" font-size="32.00" fill="#29235c">varchar</text>
<text text-anchor="start" x="475.62" y="-363.44" font-family="Helvetica,sans-Serif" font-size="32.00" fill="#29235c"> </text>
<text text-anchor="start" x="484.51" y="-363.44" font-family="Helvetica,sans-Serif" font-weight="bold" font-size="32.00" fill="#29235c">(!)</text>
<polygon fill="#e7e2dd" stroke="transparent" points="93.71,-282.24 93.71,-342.24 525.71,-342.24 525.71,-282.24 93.71,-282.24"/>
<polygon fill="none" stroke="#29235c" points="93.71,-282.24 93.71,-342.24 525.71,-342.24 525.71,-282.24 93.71,-282.24"/>
<text text-anchor="start" x="104.71" y="-302.44" font-family="Helvetica,sans-Serif" font-size="32.00" fill="#29235c">target_option_id &#160;&#160;&#160;</text>
<text text-anchor="start" x="415.15" y="-303.44" font-family="Helvetica,sans-Serif" font-style="italic" font-size="32.00" fill="#29235c">uuid</text>
<text text-anchor="start" x="475.62" y="-303.44" font-family="Helvetica,sans-Serif" font-size="32.00" fill="#29235c"> </text>
<text text-anchor="start" x="484.51" y="-303.44" font-family="Helvetica,sans-Serif" font-weight="bold" font-size="32.00" fill="#29235c">(!)</text>
<polygon fill="#e7e2dd" stroke="transparent" points="93.71,-222.24 93.71,-282.24 525.71,-282.24 525.71,-222.24 93.71,-222.24"/>
<polygon fill="none" stroke="#29235c" points="93.71,-222.24 93.71,-282.24 525.71,-282.24 525.71,-222.24 93.71,-222.24"/>
<text text-anchor="start" x="104.71" y="-242.44" font-family="Helvetica,sans-Serif" font-size="32.00" fill="#29235c">enabled &#160;&#160;&#160;</text>
<text text-anchor="start" x="400.88" y="-243.44" font-family="Helvetica,sans-Serif" font-style="italic" font-size="32.00" fill="#29235c">boolean</text>
<polygon fill="#e7e2dd" stroke="transparent" points="93.71,-162.24 93.71,-222.24 525.71,-222.24 525.71,-162.24 93.71,-162.24"/>
<polygon fill="none" stroke="#29235c" points="93.71,-162.24 93.71,-222.24 525.71,-222.24 525.71,-162.24 93.71,-162.24"/>
<text text-anchor="start" x="104.71" y="-182.44" font-family="Helvetica,sans-Serif" font-size="32.00" fill="#29235c">scope_id &#160;&#160;&#160;</text>
<text text-anchor="start" x="415.15" y="-183.44" font-family="Helvetica,sans-Serif" font-style="italic" font-size="32.00" fill="#29235c">uuid</text>
<text text-anchor="start" x="475.62" y="-183.44" font-family="Helvetica,sans-Serif" font-size="32.00" fill="#29235c"> </text>
<text text-anchor="start" x="484.51" y="-183.44" font-family="Helvetica,sans-Serif" font-weight="bold" font-size="32.00" fill="#29235c">(!)</text>
<polygon fill="#e7e2dd" stroke="transparent" points="93.71,-102.24 93.71,-162.24 525.71,-162.24 525.71,-102.24 93.71,-102.24"/>
<polygon fill="none" stroke="#29235c" points="93.71,-102.24 93.71,-162.24 525.71,-162.24 525.71,-102.24 93.71,-102.24"/>
<text text-anchor="start" x="104.71" y="-122.44" font-family="Helvetica,sans-Serif" font-size="32.00" fill="#29235c">description &#160;&#160;&#160;</text>
<text text-anchor="start" x="408.04" y="-123.44" font-family="Helvetica,sans-Serif" font-style="italic" font-size="32.00" fill="#29235c">varchar</text>
<polygon fill="none" stroke="#29235c" stroke-width="2" points="92.71,-101.24 92.71,-583.24 526.71,-583.24 526.71,-101.24 92.71,-101.24"/>
</g>
<!-- rules&#45;&gt;part_options -->
<!-- rules&#45;&gt;part_options -->
<g id="edge24" class="edge">
<title>rules:e&#45;&gt;part_options:w</title>
<path fill="none" stroke="#29235c" stroke-width="3" d="M526.71,-432.24C667.74,-432.24 589.25,-1020.43 719.56,-1049.15"/>
<polygon fill="#29235c" stroke="#29235c" stroke-width="3" points="719.43,-1052.66 729.74,-1050.24 720.17,-1045.7 719.43,-1052.66"/>
<text text-anchor="middle" x="720.85" y="-1059.84" font-family="Helvetica,sans-Serif" font-size="32.00" fill="#29235c">1</text>
<text text-anchor="middle" x="535.61" y="-413.04" font-family="Helvetica,sans-Serif" font-size="32.00" fill="#29235c">1</text>
</g>
<!-- rules&#45;&gt;part_options -->
<!-- rules&#45;&gt;part_options -->
<g id="edge26" class="edge">
<title>rules:e&#45;&gt;part_options:w</title>
<path fill="none" stroke="#29235c" stroke-width="3" d="M526.71,-312.24C693.32,-312.24 565.14,-1020.28 719.66,-1049.32"/>
<polygon fill="#29235c" stroke="#29235c" stroke-width="3" points="719.47,-1052.82 729.74,-1050.24 720.1,-1045.85 719.47,-1052.82"/>
<text text-anchor="middle" x="738.64" y="-1059.84" font-family="Helvetica,sans-Serif" font-size="32.00" fill="#29235c">1</text>
<text text-anchor="middle" x="517.82" y="-283.44" font-family="Helvetica,sans-Serif" font-size="32.00" fill="#29235c">1</text>
</g>
<!-- rules&#45;&gt;parts -->
<!-- rules&#45;&gt;parts -->
<g id="edge28" class="edge">
<title>rules:e&#45;&gt;parts:w</title>
<path fill="none" stroke="#29235c" stroke-width="3" d="M526.71,-192.24C846.12,-192.24 969.32,-280.11 1156.06,-539.24 1223.05,-632.21 1139.48,-1036.68 1242.12,-1061.09"/>
<polygon fill="#29235c" stroke="#29235c" stroke-width="3" points="1241.96,-1064.59 1252.29,-1062.24 1242.75,-1057.63 1241.96,-1064.59"/>
<text text-anchor="middle" x="1243.4" y="-1033.44" font-family="Helvetica,sans-Serif" font-size="32.00" fill="#29235c">1</text>
<text text-anchor="middle" x="535.61" y="-192.24" font-family="Helvetica,sans-Serif" font-size="32.00" fill="#29235c">1</text>
</g>
</g>
</svg>
